<svg width="637" height="189" viewBox="0 0 637 189" fill="none" xmlns="http://www.w3.org/2000/svg">
<rect x="109.375" y="32" width="22.0971" height="154.68" transform="rotate(45 109.375 32)" fill="white"/>
<rect x="46.8457" y="94.4709" width="22.0971" height="88.3883" transform="rotate(-45 46.8457 94.4709)" fill="white"/>
<path d="M194.861 151V37.5455H218.848V84.3565H267.543V37.5455H291.474V151H267.543V104.134H218.848V151H194.861ZM335.072 152.607C329.643 152.607 324.805 151.665 320.558 149.781C316.311 147.861 312.95 145.036 310.476 141.305C308.038 137.538 306.82 132.848 306.82 127.234C306.82 122.507 307.688 118.537 309.423 115.324C311.159 112.111 313.523 109.526 316.514 107.568C319.506 105.611 322.903 104.134 326.707 103.136C330.548 102.139 334.574 101.438 338.784 101.031C343.733 100.514 347.722 100.034 350.75 99.5909C353.778 99.1108 355.976 98.4091 357.342 97.4858C358.709 96.5625 359.392 95.196 359.392 93.3864V93.054C359.392 89.5455 358.284 86.831 356.068 84.9105C353.889 82.9901 350.787 82.0298 346.761 82.0298C342.514 82.0298 339.135 82.9716 336.624 84.8551C334.112 86.7017 332.45 89.0284 331.638 91.8352L309.811 90.0625C310.919 84.892 313.098 80.4233 316.348 76.6562C319.598 72.8523 323.79 69.9347 328.923 67.9034C334.094 65.8352 340.077 64.8011 346.872 64.8011C351.599 64.8011 356.124 65.3551 360.445 66.4631C364.803 67.571 368.662 69.2884 372.023 71.6151C375.42 73.9418 378.098 76.9332 380.055 80.5895C382.013 84.2088 382.991 88.5483 382.991 93.608V151H360.611V139.2H359.946C358.58 141.859 356.751 144.205 354.462 146.236C352.172 148.23 349.42 149.8 346.207 150.945C342.994 152.053 339.283 152.607 335.072 152.607ZM341.831 136.32C345.303 136.32 348.368 135.636 351.027 134.27C353.686 132.866 355.773 130.983 357.287 128.619C358.801 126.256 359.558 123.578 359.558 120.587V111.557C358.82 112.037 357.804 112.48 356.511 112.886C355.256 113.256 353.834 113.607 352.246 113.939C350.658 114.234 349.07 114.511 347.482 114.77C345.893 114.991 344.453 115.195 343.161 115.379C340.391 115.786 337.972 116.432 335.903 117.318C333.835 118.205 332.229 119.405 331.084 120.919C329.939 122.396 329.366 124.243 329.366 126.459C329.366 129.672 330.53 132.128 332.857 133.827C335.22 135.489 338.212 136.32 341.831 136.32ZM401.744 151V37.5455H425.343V80.2017H426.063C427.097 77.9119 428.593 75.5852 430.55 73.2216C432.545 70.821 435.13 68.8267 438.306 67.2386C441.519 65.6136 445.508 64.8011 450.272 64.8011C456.477 64.8011 462.201 66.4261 467.445 69.6761C472.69 72.8892 476.881 77.7457 480.021 84.2457C483.16 90.7088 484.729 98.8153 484.729 108.565C484.729 118.057 483.197 126.071 480.131 132.608C477.103 139.108 472.967 144.038 467.722 147.399C462.515 150.723 456.68 152.385 450.217 152.385C445.637 152.385 441.741 151.628 438.528 150.114C435.352 148.599 432.748 146.697 430.717 144.408C428.685 142.081 427.134 139.736 426.063 137.372H425.011V151H401.744ZM424.844 108.455C424.844 113.514 425.546 117.928 426.95 121.695C428.353 125.462 430.384 128.398 433.043 130.503C435.702 132.571 438.934 133.605 442.738 133.605C446.579 133.605 449.829 132.553 452.488 130.447C455.147 128.305 457.16 125.351 458.526 121.584C459.93 117.78 460.631 113.403 460.631 108.455C460.631 103.543 459.948 99.2216 458.582 95.4915C457.215 91.7614 455.202 88.8437 452.543 86.7386C449.884 84.6335 446.616 83.581 442.738 83.581C438.897 83.581 435.647 84.5966 432.988 86.6278C430.366 88.6591 428.353 91.5398 426.95 95.2699C425.546 99 424.844 103.395 424.844 108.455ZM500.476 151V65.9091H524.076V151H500.476ZM512.331 54.9403C508.823 54.9403 505.813 53.777 503.301 51.4503C500.827 49.0866 499.59 46.2614 499.59 42.9744C499.59 39.7244 500.827 36.9361 503.301 34.6094C505.813 32.2457 508.823 31.0639 512.331 31.0639C515.84 31.0639 518.831 32.2457 521.306 34.6094C523.817 36.9361 525.073 39.7244 525.073 42.9744C525.073 46.2614 523.817 49.0866 521.306 51.4503C518.831 53.777 515.84 54.9403 512.331 54.9403ZM588.24 65.9091V83.6364H536.997V65.9091H588.24ZM548.631 45.5227H572.23V124.852C572.23 127.031 572.563 128.73 573.227 129.949C573.892 131.131 574.815 131.962 575.997 132.442C577.216 132.922 578.619 133.162 580.207 133.162C581.315 133.162 582.423 133.07 583.531 132.885C584.639 132.663 585.489 132.497 586.08 132.386L589.791 149.947C588.609 150.317 586.947 150.741 584.805 151.222C582.663 151.739 580.06 152.053 576.994 152.163C571.307 152.385 566.321 151.628 562.037 149.892C557.79 148.156 554.484 145.46 552.121 141.804C549.757 138.148 548.594 133.531 548.631 127.955V45.5227ZM603.613 151V65.9091H627.212V151H603.613ZM615.468 54.9403C611.96 54.9403 608.95 53.777 606.438 51.4503C603.964 49.0866 602.727 46.2614 602.727 42.9744C602.727 39.7244 603.964 36.9361 606.438 34.6094C608.95 32.2457 611.96 31.0639 615.468 31.0639C618.977 31.0639 621.968 32.2457 624.442 34.6094C626.954 36.9361 628.21 39.7244 628.21 42.9744C628.21 46.2614 626.954 49.0866 624.442 51.4503C621.968 53.777 618.977 54.9403 615.468 54.9403Z" fill="white"/>
</svg>
